<svg width="46" height="41" viewBox="0 0 46 41" fill="none" xmlns="http://www.w3.org/2000/svg">
<path d="M30.4091 0.820312H12.9928C5.81389 0.820312 0 6.71329 0 13.9899V31.6432C0 32.7962 0.151667 34.1029 0.429722 35.1534C1.39028 38.8429 4.57527 40.8926 7.81083 40.8926C9.1 40.8926 10.3892 40.5595 11.5267 39.8934C11.653 39.8165 11.7794 39.7397 11.9058 39.6628C12.0069 39.6115 12.0828 39.5346 12.1838 39.4834C12.2597 39.4321 12.3355 39.3809 12.3861 39.3297C12.4367 39.2784 12.4872 39.2528 12.5378 39.2015C12.6389 39.1247 12.7148 39.0478 12.8158 38.9709C12.9422 38.8685 13.0434 38.766 13.1444 38.6379C13.195 38.5866 13.2456 38.5354 13.3214 38.4585C13.4225 38.3305 13.5236 38.2279 13.6247 38.0999C13.7259 37.9717 13.8269 37.8436 13.9281 37.7156L20.6772 28.133C20.7024 28.0817 20.7531 28.0562 20.7783 28.0049C21.2334 27.4925 22.0422 27.4925 22.4972 28.0049C22.5225 28.0305 22.573 28.0817 22.5984 28.133L29.4739 37.7411C29.5749 37.8693 29.6508 37.9974 29.752 38.1254C29.9794 38.3817 30.2069 38.6379 30.4345 38.8685C30.485 38.9197 30.5355 38.9709 30.5861 38.9966C30.6367 39.0478 30.6872 39.0991 30.763 39.1503C30.8136 39.2015 30.8894 39.2528 30.9399 39.304C30.9906 39.3552 31.0663 39.4066 31.117 39.4578C31.1675 39.509 31.2433 39.5346 31.2939 39.5859C31.3444 39.6372 31.4202 39.6628 31.4709 39.714C31.5466 39.7652 31.5972 39.7909 31.6731 39.8421C31.7236 39.8677 31.7995 39.9189 31.85 39.9446C32.0522 40.0471 32.2544 40.1495 32.4566 40.2521C32.5325 40.2777 32.583 40.3033 32.6589 40.3546C32.7347 40.3801 32.7852 40.4058 32.8611 40.4314C32.9874 40.4827 33.1391 40.5339 33.2655 40.5852C33.3919 40.6364 33.5184 40.662 33.6699 40.7132C33.948 40.7901 34.2009 40.8413 34.4788 40.8926C34.5547 40.8926 34.6053 40.9182 34.681 40.9182C34.7317 40.9182 34.8075 40.9438 34.858 40.9438C34.9086 40.9438 34.9339 40.9438 34.9844 40.9438C35.0603 40.9438 35.1108 40.9438 35.1866 40.9695C35.2372 40.9695 35.2625 40.9695 35.313 40.9695C35.4142 40.9695 35.5405 40.9695 35.6416 40.9695H35.6669C35.7681 40.9695 35.8691 40.9695 35.9703 40.9695C38.953 40.8413 41.8347 38.9709 42.8458 35.6658C43.225 34.4103 43.4272 33.1036 43.4272 31.7201V13.9899C43.402 6.71329 37.588 0.820312 30.4091 0.820312ZM34.9591 21.0101C34.858 21.1383 34.7569 21.2664 34.6558 21.3945C34.125 22.0095 33.3919 22.4193 32.6336 22.7781C31.2939 23.4442 29.853 23.8029 28.4122 24.0848C25.2525 24.6997 22.0674 24.8278 18.8573 24.5972C16.6833 24.4691 14.5347 24.136 12.4367 23.4699C11.552 23.188 10.6925 22.855 9.90888 22.3681C9.80777 22.2913 9.68139 22.2401 9.58027 22.1632C9.47916 22.0863 9.37805 22.0095 9.27694 21.9326C9.22638 21.8813 9.17583 21.8558 9.1 21.8044C9.07471 21.7788 9.02416 21.7532 8.99889 21.7276C8.94833 21.6764 8.89777 21.6251 8.82195 21.5738C8.67028 21.4201 8.51861 21.2407 8.39222 21.0615C8.21527 20.8052 8.08888 20.549 8.01305 20.2415C7.98778 20.1134 7.9625 19.9597 7.9625 19.8316C7.93722 19.6266 7.9625 19.4217 8.01305 19.2423C8.03832 19.1654 8.03832 19.0886 8.06361 19.0373C8.08888 18.9605 8.11416 18.8836 8.13944 18.8323C8.26583 18.5505 8.44277 18.2943 8.64499 18.0637C8.69555 18.0125 8.74611 17.9613 8.77138 17.9356C9.45389 17.2438 10.2628 16.7826 11.1475 16.4239C11.4761 16.2958 11.8047 16.1677 12.1586 16.0652C12.3355 16.014 12.4872 15.9627 12.6641 15.8858C12.8411 15.809 12.9927 15.7834 13.1697 15.7321C13.2456 15.7065 13.2961 15.6809 13.3466 15.6297C13.3719 15.604 13.3973 15.5784 13.3973 15.5528C13.4225 15.5272 13.4225 15.5015 13.4478 15.4503C13.8522 14.3742 14.4084 13.4518 15.0655 12.6575C15.1919 12.5038 15.3183 12.3756 15.4448 12.2476C16.6581 10.9921 18.2253 10.1466 20.1716 9.7879C22.9775 9.24984 25.8592 10.2747 27.8308 12.2732C28.665 13.1444 29.3475 14.1692 29.7772 15.3478C29.8278 15.476 29.8783 15.5528 29.9542 15.6297C30.03 15.7065 30.1059 15.7578 30.2322 15.7834C31.3444 16.0909 32.4313 16.4752 33.4172 17.0901C33.9228 17.3975 34.4031 17.7562 34.7569 18.1918C34.9591 18.448 35.1108 18.7042 35.2372 19.0373C35.2878 19.1654 35.313 19.2935 35.3635 19.4217V20.1391C35.2878 20.4209 35.1866 20.6515 35.0603 20.8821C35.0349 20.8821 35.0097 20.9589 34.9591 21.0101Z" fill="black"/>
</svg>
